<?xml version="1.0" standalone="no"?>
<!DOCTYPE svg PUBLIC "-//W3C//DTD SVG 20010904//EN"
 "https://mir-s3-cdn-cf.behance.net/project_modules/fs/cc2b1698494457.5eddc21fd2e62.jpg">
<svg version="1.0" xmlns="http://www.w3.org/2000/svg"
 width="346.000000pt" height="261.000000pt" viewBox="0 0 346.000000 261.000000"
 preserveAspectRatio="xMidYMid meet">
<metadata>
Created by- https://www.behance.net/daveedesignz
</metadata>
<g transform="translate(0.000000,261.000000) scale(0.100000,-0.100000)"
fill="#000000" stroke="none">

<!-- Outer Ring -->
<path d="M1615 2481 c-242 -39 -443 -183 -547 -393 -57 -115 -72 -185 -72
-323 -1 -136 20 -220 80 -336 180 -343 607 -477 962 -303 39 19 72 38 72 42 0
4 -16 19 -35 35 l-35 28 -47 -24 c-101 -51 -151 -62 -278 -62 -96 0 -134 4
-190 22 -93 30 -184 85 -255 156 -120 118 -182 265 -184 432 -1 116 13 183 60
280 69 146 188 257 339 317 69 27 96 32 195 36 198 8 337 -45 471 -178 170
-169 232 -421 156 -638 l-24 -71 33 -32 c19 -18 36 -30 39 -28 2 3 15 34 28
70 76 202 57 435 -50 619 -21 36 -74 101 -118 146 -66 66 -97 89 -175 127 -52
26 -121 53 -153 61 -73 19 -207 27 -272 17z" fill="#222831" />

<!-- Magnifying Glass-->
<path d="M1592 2289 c-26 -8 -33 -14 -30 -32 3 -20 8 -22 54 -19 53 2 67 -5
76 -44 5 -18 -2 -22 -51 -32 -180 -38 -311 -180 -328 -355 -6 -66 -6 -67 -32
-61 -39 10 -45 19 -42 66 7 108 8 103 -18 103 -32 0 -41 -33 -42 -150 0 -239
140 -434 370 -512 52 -18 87 -22 166 -22 117 1 149 8 153 33 5 26 -16 36 -63
29 -43 -6 -58 4 -67 44 -5 19 -1 22 44 28 27 4 79 22 114 39 l64 32 25 -26
c14 -15 34 -41 43 -58 28 -49 292 -280 329 -288 66 -13 141 63 129 129 -5 27
-32 57 -134 148 -152 137 -180 159 -213 162 -13 1 -37 12 -52 24 -28 22 -28
22 -11 55 23 44 44 125 44 169 0 36 1 36 33 30 l32 -7 0 -80 c0 -78 0 -79 25
-79 19 0 26 6 31 30 13 59 9 197 -7 259 -47 181 -199 334 -379 381 -65 17
-211 19 -263 4z m302 -81 c73 -31 128 -70 179 -129 49 -56 96 -143 104 -194 5
-30 2 -35 -26 -49 -25 -13 -32 -14 -35 -4 -3 7 -12 36 -20 63 -44 139 -173
247 -325 271 -33 5 -38 9 -33 28 13 54 53 57 156 14z m-47 -176 c101 -52 163
-152 163 -264 0 -36 -3 -74 -6 -83 -6 -15 -8 -14 -25 1 -14 13 -28 15 -60 10
-55 -9 -71 5 -63 53 3 20 13 41 21 48 13 10 12 13 -6 23 -12 6 -21 17 -21 25
0 8 -15 31 -32 51 l-33 37 23 15 c26 17 29 47 6 56 -27 10 -46 -13 -38 -47 5
-25 4 -29 -11 -24 -9 4 -34 7 -55 7 l-38 0 6 45 c3 35 1 46 -12 51 -9 3 -16
11 -16 16 0 19 151 3 197 -20z m-355 -167 c57 15 94 -88 43 -121 -18 -12 -29
-13 -44 -5 -27 15 -51 4 -51 -24 0 -33 26 -38 56 -10 15 14 36 25 46 25 18 0
57 -35 58 -52 0 -18 -42 -48 -69 -48 -19 0 -35 -8 -44 -20 -14 -21 -14 -21
-29 2 -26 40 -38 89 -38 154 0 78 14 121 34 105 8 -7 25 -9 38 -6z m-172 -188
c0 -37 56 -143 101 -191 49 -54 160 -113 229 -122 45 -6 47 -8 41 -32 -11 -40
-33 -48 -88 -34 -171 46 -326 198 -349 344 -6 32 -3 37 22 50 35 17 44 14 44
-15z m559 -3 c12 -15 21 -33 21 -40 0 -16 37 -37 50 -29 19 12 10 -14 -15 -44
-14 -16 -53 -44 -87 -60 -50 -25 -73 -31 -128 -31 -68 0 -117 12 -158 38 l-23
15 22 23 c15 16 20 31 17 49 -3 16 1 34 12 47 15 19 20 20 50 10 18 -7 48 -12
66 -12 40 0 56 -24 52 -78 -3 -34 -1 -37 22 -37 34 0 37 27 6 59 -34 34 -33
45 11 83 46 39 56 40 82 7z" fill="#F13043" />

<!-- Letter first "d" -->
<path d="M1397 753 c-2 -5 -3 -29 -2 -55 l3 -48 -52 0 c-133 -1 -214 -99 -188
-227 14 -67 36 -99 83 -124 80 -40 200 -33 253 16 l26 24 0 199 c0 141 -3 201
-12 210 -13 13 -104 17 -111 5z m1 -281 c3 -83 -6 -102 -48 -102 -62 0 -93 98
-49 154 17 22 28 27 58 24 l36 -3 3 -73z" fill="#222831" />

<!-- Letter last "d" -->
<path d="M3207 753 c-4 -3 -7 -30 -7 -59 l0 -52 -40 5 c-50 7 -117 -17 -153
-55 -52 -54 -60 -169 -17 -239 51 -84 236 -105 312 -36 16 14 18 38 18 218 0
143 -3 204 -12 213 -13 13 -90 17 -101 5z m-16 -203 c6 0 9 -36 7 -87 l-3 -88
-36 -3 c-44 -4 -69 21 -76 77 -8 60 40 120 85 105 8 -2 18 -4 23 -4z" fill="#F13043" />

<!-- Letter "F" -->
<path d="M177 702 c-15 -16 -17 -46 -17 -208 0 -135 4 -194 12 -202 7 -7 36
-12 65 -12 l53 0 0 80 0 80 73 0 c78 0 97 9 97 46 0 50 -7 54 -91 54 l-79 0 0
40 0 40 83 0 c95 0 107 7 107 62 l0 38 -143 0 c-127 0 -146 -2 -160 -18z" fill="#222831" />

<!-- Letter "n" -->
<path d="M825 635 c-22 -8 -50 -26 -62 -40 -21 -24 -23 -36 -23 -154 0 -150 6
-161 83 -161 l47 0 0 129 c0 138 1 141 54 141 40 0 46 -18 46 -135 0 -73 4
-115 12 -123 7 -7 34 -12 60 -12 l48 0 0 143 c0 162 -5 177 -74 208 -49 22
-134 24 -191 4z" fill="#222831" />

<!-- Letter "c" -->
<path d="M1706 635 c-83 -29 -121 -95 -114 -194 5 -69 32 -113 89 -141 47 -25
132 -30 177 -11 30 12 33 17 30 50 l-3 36 -60 -3 c-55 -3 -63 -1 -88 24 -29
29 -36 78 -16 116 17 31 70 49 110 38 45 -13 47 -13 54 10 22 70 -77 112 -179
75z" fill="#F13043" />

<!-- Letter "o" -->
<path d="M2047 636 c-76 -27 -110 -80 -111 -171 -1 -118 69 -188 189 -187 120
1 185 65 185 182 0 27 -5 61 -11 77 -34 90 -149 135 -252 99z m122 -101 c8 -8
16 -35 18 -62 6 -60 -22 -103 -67 -103 -39 0 -60 32 -60 93 0 81 59 119 109
72z" fill="#F13043" />

<!-- Letter first "i" -->
<path d="M553 633 c-18 -7 -18 -324 -1 -341 7 -7 34 -12 60 -12 l48 0 0 168
c0 117 -4 172 -12 180 -12 12 -71 15 -95 5z" fill="#222831" />

<!-- Letter "v" -->
<path d="M2362 628 c-18 -18 -16 -32 28 -163 52 -155 70 -185 112 -187 60 -2
83 3 100 22 20 24 72 158 93 241 21 82 11 101 -53 97 l-47 -3 -29 -127 c-16
-71 -33 -128 -38 -128 -4 0 -8 8 -8 18 -1 36 -58 225 -71 233 -20 13 -73 11
-87 -3z" fill="#F13043" />

<!-- Letter last "i" -->
<path d="M2788 633 c-16 -4 -18 -20 -18 -163 0 -182 3 -190 76 -190 l44 0 0
170 c0 157 -1 170 -19 180 -20 10 -52 11 -83 3z" fill="#F13043" />


</g>
</svg>
